<svg width="159" height="120" viewBox="0 0 159 120" fill="none" xmlns="http://www.w3.org/2000/svg">
<g clip-path="url(#clip0)">
<path d="M127.302 0.0721359H0.0543213V81.5674H127.302V0.0721359Z" fill="#E6E6E6"/>
<path d="M123.664 10.2937H3.69296V76.7461H123.664V10.2937Z" fill="white"/>
<path d="M127.248 0H0V5.40596H127.248V0Z" fill="#DB2E79"/>
<path d="M4.01727 3.76577C4.57064 3.76577 5.01923 3.31718 5.01923 2.76381C5.01923 2.21045 4.57064 1.76186 4.01727 1.76186C3.46391 1.76186 3.01532 2.21045 3.01532 2.76381C3.01532 3.31718 3.46391 3.76577 4.01727 3.76577Z" fill="white"/>
<path d="M7.82043 3.76577C8.3738 3.76577 8.82239 3.31718 8.82239 2.76381C8.82239 2.21045 8.3738 1.76186 7.82043 1.76186C7.26707 1.76186 6.81848 2.21045 6.81848 2.76381C6.81848 3.31718 7.26707 3.76577 7.82043 3.76577Z" fill="white"/>
<path d="M11.6236 3.76577C12.177 3.76577 12.6256 3.31718 12.6256 2.76381C12.6256 2.21045 12.177 1.76186 11.6236 1.76186C11.0702 1.76186 10.6216 2.21045 10.6216 2.76381C10.6216 3.31718 11.0702 3.76577 11.6236 3.76577Z" fill="white"/>
<path d="M45.4207 17.1887H14.5939V69.8511H45.4207V17.1887Z" fill="#E6E6E6"/>
<path d="M76.4311 17.1887H50.7421V31.6846H76.4311V17.1887Z" fill="#DB2E79"/>
<path d="M76.4311 35.7214H50.7421V51.3184H76.4311V35.7214Z" fill="#E6E6E6"/>
<path d="M76.4311 55.3552H50.7421V69.8511H76.4311V55.3552Z" fill="#E6E6E6"/>
<path d="M112.763 17.1887H81.9358V40.1387H112.763V17.1887Z" fill="#E6E6E6"/>
<path d="M112.763 46.9011H81.9358V69.8511H112.763V46.9011Z" fill="#DB2E79"/>
<path d="M145.584 40.8465C143.55 37.3809 139.527 37.2194 139.527 37.2194C139.527 37.2194 135.607 36.7137 133.092 41.9919C130.748 46.9116 127.513 51.6616 132.572 52.8133L133.485 49.945L134.051 53.0268C134.771 53.0791 135.494 53.0915 136.215 53.0641C141.632 52.8877 146.791 53.1157 146.625 51.1551C146.404 48.5488 147.54 44.1811 145.584 40.8465Z" fill="#2F2E41"/>
<path d="M126.301 59.3502L124.522 63.8957L115.629 72.1963C115.629 72.1963 110.292 76.1489 112.664 77.3347C115.036 78.5205 117.21 72.9868 117.21 72.9868L126.696 67.2555L128.672 60.7336L126.301 59.3502Z" fill="#FFB8B8"/>
<path d="M129.265 109.747L131.044 114.292H133.613L131.439 108.956L129.265 109.747Z" fill="#FFB8B8"/>
<path d="M136.973 111.723L138.751 116.268H141.321L139.147 110.932L136.973 111.723Z" fill="#FFB8B8"/>
<path d="M136.775 112.513L140.135 111.723L135.787 94.1335L137.231 80.5995L137.269 80.5957C137.269 80.5957 139.74 71.0105 137.763 68.4413C135.787 65.872 125.905 66.8602 125.905 66.8602C125.905 66.8602 122.15 70.6152 122.348 79.1134C122.546 87.6116 122.348 94.924 123.731 98.2838C125.115 101.644 129.067 110.537 129.067 110.537L132.23 110.142L128.87 95.5169L128.333 82.8038C128.76 87.8984 129.621 97.5588 130.056 98.2838C130.649 99.2719 136.775 112.513 136.775 112.513Z" fill="#6032A2"/>
<path d="M146.854 63.5005L148.238 68.4413L154.365 79.5087C154.365 79.5087 159.701 84.2519 157.527 84.8448C155.353 85.4377 151.993 80.4969 151.993 80.4969L145.076 70.8129L143.297 63.6981L146.854 63.5005Z" fill="#FFB8B8"/>
<path d="M139.74 49.4685C142.468 49.4685 144.68 47.2565 144.68 44.5277C144.68 41.799 142.468 39.5869 139.74 39.5869C137.011 39.5869 134.799 41.799 134.799 44.5277C134.799 47.2565 137.011 49.4685 139.74 49.4685Z" fill="#FFB8B8"/>
<path d="M137.17 47.097L135.985 50.852L134.008 55.1999L141.321 52.2354C141.321 52.2354 140.925 49.0733 141.321 48.2828L137.17 47.097Z" fill="#FFB8B8"/>
<path d="M145.669 55.0022L141.123 51.2472L135.985 53.4212L136.186 50.2144L130.703 51.9654L129.858 52.2354L128.672 58.362C128.672 58.362 127.882 58.9549 127.091 62.3146C126.635 64.289 125.972 66.2099 125.115 68.046C125.115 68.046 133.613 64.6862 137.763 69.2318C137.763 69.2318 138.356 68.8365 138.159 68.2436C137.961 67.6507 139.937 64.6862 139.937 64.6862C139.937 64.6862 139.937 65.2791 140.728 64.0933C141.518 62.9075 142.111 62.7099 142.111 62.7099L145.669 55.0022Z" fill="#DB2E79"/>
<path d="M131.044 52.8283L130.181 52.1324C130.181 52.1324 129.463 51.8401 128.87 52.8283C128.277 53.8164 125.312 59.943 125.312 59.943L128.87 61.7217L131.044 52.8283Z" fill="#DB2E79"/>
<path d="M142.902 54.8046L145.669 55.0023C145.669 55.0023 147.25 55.7928 147.25 56.9786C147.25 58.1644 147.645 64.4886 147.645 64.4886L143.297 65.872L141.518 60.3383L142.902 54.8046Z" fill="#DB2E79"/>
<path d="M130.473 113.6L127.113 114.984C127.113 114.984 123.16 115.181 123.753 117.158C124.346 119.134 130.275 117.751 130.275 117.751C130.275 117.751 135.611 117.948 135.611 116.565C135.611 115.181 134.821 113.6 134.03 113.6H130.473Z" fill="#2F2E41"/>
<path d="M137.983 115.379L134.623 116.762C134.623 116.762 130.67 116.96 131.263 118.936C131.856 120.913 137.785 119.529 137.785 119.529C137.785 119.529 143.121 119.727 143.121 118.343C143.121 116.96 142.331 115.379 141.54 115.379H137.983Z" fill="#2F2E41"/>
<path d="M144.685 40.5125L140.71 38.4124L135.222 39.2715L134.086 44.3303L136.913 44.2208L137.703 42.3621V44.1902L139.007 44.1396L139.764 41.1807L140.237 44.3303L144.874 44.2349L144.685 40.5125Z" fill="#2F2E41"/>
<path d="M118.101 16.5115C114.148 13.1755 109.31 11.0605 104.176 10.4239C99.0429 9.78734 93.835 10.6566 89.1865 12.9258C84.5379 15.1951 80.6492 18.7666 77.9935 23.2056C75.3377 27.6447 74.0295 32.76 74.2279 37.9291C74.4263 43.0981 76.1229 48.098 79.1112 52.3204C82.0994 56.5428 86.2505 59.8057 91.0594 61.7119C95.8682 63.6181 101.127 64.0854 106.197 63.0572C111.267 62.0289 115.928 59.5492 119.614 55.92L152.346 83.5387C152.592 83.747 152.878 83.9046 153.186 84.0026C153.493 84.1006 153.817 84.137 154.139 84.1098C154.461 84.0826 154.774 83.9922 155.061 83.8439C155.348 83.6955 155.603 83.4922 155.811 83.2454C156.019 82.9985 156.177 82.7131 156.275 82.4054C156.373 82.0976 156.409 81.7736 156.382 81.4518C156.355 81.13 156.264 80.8168 156.116 80.5299C155.967 80.2431 155.764 79.9883 155.517 79.78L122.786 52.1613C126.588 46.7041 128.215 40.0236 127.349 33.429C126.482 26.8344 123.184 20.8011 118.101 16.5115ZM115.991 49.5018C113.441 52.5238 110.052 54.7218 106.253 55.8178C102.454 56.9138 98.4154 56.8587 94.6476 55.6593C90.8799 54.4599 87.5524 52.1702 85.0859 49.0797C82.6195 45.9892 81.1249 42.2367 80.7911 38.2968C80.4573 34.3569 81.2993 30.4064 83.2107 26.945C85.1221 23.4836 88.0169 20.6668 91.5292 18.8507C95.0415 17.0345 99.0135 16.3007 102.943 16.742C106.872 17.1832 110.582 18.7798 113.604 21.3297C117.657 24.7491 120.185 29.6382 120.632 34.9215C121.08 40.2048 119.41 45.4495 115.991 49.5018Z" fill="#6032A2"/>
<path opacity="0.3" d="M87.819 51.8885C83.9838 48.652 81.5059 44.0916 80.8774 39.1127C80.249 34.1339 81.5159 29.1007 84.4266 25.0127C84.0443 25.3977 83.6748 25.8008 83.318 26.2222C81.6247 28.2287 80.3431 30.5491 79.5466 33.0508C78.7501 35.5526 78.4542 38.1868 78.6757 40.8029C78.8972 43.4191 79.6319 45.966 80.8378 48.2982C82.0437 50.6304 83.6971 52.7022 85.7038 54.3954C87.7104 56.0885 90.0308 57.3699 92.5327 58.1662C95.0345 58.9626 97.6687 59.2583 100.285 59.0366C102.901 58.8148 105.448 58.08 107.78 56.8739C110.112 55.6679 112.184 54.0143 113.877 52.0075C114.233 51.5856 114.568 51.1535 114.883 50.7113C111.342 54.2682 106.594 56.3638 101.581 56.5819C96.5669 56.8 91.6546 55.1246 87.819 51.8885Z" fill="black"/>
</g>
<defs>
<clipPath id="clip0">
<rect width="158.047" height="120" fill="white"/>
</clipPath>
</defs>
</svg>
